<?xml version="1.0" encoding="UTF-8"?>
<svg id="Capa_1" data-name="Capa 1" xmlns="http://www.w3.org/2000/svg" viewBox="0 0 245.38 136.85">
  <defs>
    <style>
      .cls-1 {
        fill: #2979ff;
      }
    </style>
  </defs>
  <path class="cls-1" d="M97.74,90.93c0,2.05-.14,4.05-.43,6.03-3.1,22.01-22.96,38.98-46.99,38.98-21.71,0-40.01-13.84-45.63-32.74,0,0,0-.01,0-.02-.02-.06-.04-.12-.06-.18-.02-.06-.03-.12-.05-.18,0,0,0-.02,0-.02-.08-.35-.12-.71-.12-1.08,0-2.62,2.13-4.74,4.75-4.74h20.25c2.8,0,5.08-2.27,5.08-5.08,0-1.98-1.13-3.7-2.78-4.53t0,0c-.23-.12-.47-.22-.72-.3,0,0-.01,0-.02,0-9.15-3.88-16.76-10.43-21.74-18.61-4.03-6.62-6.35-14.31-6.35-22.5,0-2.05.14-4.05.43-6.03C6.43,17.89,26.28.92,50.32.92c21.63,0,39.87,13.74,45.57,32.54.08.26.15.51.22.78.06.3.09.61.09.92,0,2.62-2.12,4.74-4.74,4.74h-20.25c-2.81,0-5.08,2.27-5.08,5.08,0,2.01,1.16,3.74,2.84,4.56.19.1.39.18.59.25,9.19,3.87,16.83,10.44,21.83,18.64,4.04,6.62,6.35,14.31,6.35,22.5Z"/>
  <path class="cls-1" d="M119.78,81.02c0-7.46,6-11.33,15.5-12.4l21.89-2.32v-2.81c0-7.94-3.49-10.75-12.69-10.75s-13.27,2.91-13.27,9.98v.39h-10.36v-.39c0-10.94,9.1-19.18,24.41-19.18s22.18,8.33,22.18,19.85v29.25h-9.59v-12.01h-.68c-2.52,8.13-10.17,12.98-21.11,12.98-9.98,0-16.27-4.65-16.27-12.59ZM138.86,86.05c10.94,0,18.3-4.07,18.3-13.56l-18.89,2.13c-5.42.68-8.04,1.94-8.04,5.71s2.61,5.71,8.62,5.71Z"/>
  <path class="cls-1" d="M167.23,109.1v-8.04h3.29c4.07,0,6.3-1.65,6.3-6.01v-50.55h10.46v48.71c0,12.01-6.88,15.88-17.05,15.88h-3ZM176.82,38.89v-11.14h10.46v11.14h-10.46Z"/>
  <path class="cls-1" d="M194.83,81.02c0-7.46,6-11.33,15.5-12.4l21.89-2.32v-2.81c0-7.94-3.49-10.75-12.69-10.75s-13.27,2.91-13.27,9.98v.39h-10.36v-.39c0-10.94,9.1-19.18,24.41-19.18s22.18,8.33,22.18,19.85v29.25h-9.59v-12.01h-.68c-2.52,8.13-10.17,12.98-21.11,12.98-9.98,0-16.27-4.65-16.27-12.59ZM213.91,86.05c10.94,0,18.3-4.07,18.3-13.56l-18.89,2.13c-5.42.68-8.04,1.94-8.04,5.71s2.62,5.71,8.62,5.71Z"/>
</svg>