<?xml version="1.0" encoding="UTF-8"?>
<svg id="Capa_1" data-name="Capa 1" xmlns="http://www.w3.org/2000/svg" viewBox="0 0 287.6 160.4">
  <defs>
    <style>
      .cls-1 {
        fill: #3d68aa;
      }

      .cls-2 {
        fill: #1d1d1d;
      }
    </style>
  </defs>
  <path class="cls-1" d="M114.4,106.71c0,2.41-.17,4.78-.5,7.1-3.65,25.93-27.05,45.92-55.36,45.92-25.57,0-47.13-16.31-53.76-38.57,0,0,0-.01,0-.02-.02-.07-.05-.14-.07-.22-.02-.07-.04-.14-.06-.22,0,0,0-.02,0-.03-.09-.41-.15-.84-.15-1.28,0-3.09,2.5-5.59,5.59-5.59h23.86c3.3,0,5.99-2.68,5.99-5.99,0-2.33-1.34-4.36-3.28-5.34t0,0c-.27-.14-.55-.26-.85-.35,0,0-.01,0-.02,0-10.78-4.57-19.75-12.29-25.62-21.92-4.75-7.8-7.48-16.85-7.48-26.51,0-2.41,.17-4.78,.5-7.1C6.82,20.66,30.22,.67,58.53,.67c25.48,0,46.98,16.19,53.69,38.33,.09,.3,.18,.61,.26,.91,.07,.35,.11,.71,.11,1.09,0,3.09-2.5,5.59-5.59,5.59h-23.86c-3.31,0-5.99,2.68-5.99,5.99,0,2.36,1.36,4.4,3.35,5.37,.22,.11,.45,.21,.69,.29,10.82,4.56,19.83,12.3,25.72,21.96,4.76,7.8,7.48,16.85,7.48,26.51Z"/>
  <g>
    <path class="cls-2" d="M140.37,95.03c0-8.79,7.07-13.35,18.26-14.6l25.79-2.74v-3.31c0-9.36-4.11-12.67-14.95-12.67s-15.63,3.42-15.63,11.75v.46h-12.21v-.46c0-12.89,10.73-22.59,28.75-22.59s26.13,9.81,26.13,23.39v34.46h-11.3v-14.15h-.8c-2.97,9.58-11.98,15.29-24.87,15.29-11.75,0-19.17-5.48-19.17-14.83Zm22.48,5.93c12.89,0,21.56-4.79,21.56-15.97l-22.25,2.51c-6.39,.8-9.47,2.28-9.47,6.73s3.08,6.73,10.15,6.73Z"/>
    <path class="cls-2" d="M196.27,128.12v-9.47h3.88c4.79,0,7.42-1.94,7.42-7.07V52.02h12.32v57.39c0,14.15-8.1,18.71-20.08,18.71h-3.54Zm11.3-82.72v-13.12h12.32v13.12h-12.32Z"/>
    <path class="cls-2" d="M228.79,95.03c0-8.79,7.07-13.35,18.26-14.6l25.79-2.74v-3.31c0-9.36-4.11-12.67-14.95-12.67s-15.63,3.42-15.63,11.75v.46h-12.21v-.46c0-12.89,10.73-22.59,28.75-22.59s26.13,9.81,26.13,23.39v34.46h-11.29v-14.15h-.8c-2.97,9.58-11.98,15.29-24.87,15.29-11.75,0-19.17-5.48-19.17-14.83Zm22.48,5.93c12.89,0,21.56-4.79,21.56-15.97l-22.25,2.51c-6.39,.8-9.47,2.28-9.47,6.73s3.08,6.73,10.16,6.73Z"/>
  </g>
</svg>