<?xml version="1.0" encoding="UTF-8"?>
<svg id="Capa_1" data-name="Capa 1" xmlns="http://www.w3.org/2000/svg" viewBox="0 0 116.16 160.4">
  <defs>
    <style>
      .cls-1 {
        fill: #3d68aa;
      }
    </style>
  </defs>
  <path class="cls-1" d="M114.4,106.71c0,2.41-.17,4.78-.5,7.1-3.65,25.93-27.05,45.92-55.36,45.92-25.57,0-47.13-16.31-53.76-38.57,0,0,0-.01,0-.02-.02-.07-.05-.14-.07-.22-.02-.07-.04-.14-.06-.22,0,0,0-.02,0-.03-.09-.41-.15-.84-.15-1.28,0-3.09,2.5-5.59,5.59-5.59h23.86c3.3,0,5.99-2.68,5.99-5.99,0-2.33-1.34-4.36-3.28-5.34t0,0c-.27-.14-.55-.26-.85-.35,0,0-.01,0-.02,0-10.78-4.57-19.75-12.29-25.62-21.92-4.75-7.8-7.48-16.85-7.48-26.51,0-2.41,.17-4.78,.5-7.1C6.82,20.66,30.22,.67,58.53,.67c25.48,0,46.98,16.19,53.69,38.33,.09,.3,.18,.61,.26,.91,.07,.35,.11,.71,.11,1.09,0,3.09-2.5,5.59-5.59,5.59h-23.86c-3.31,0-5.99,2.68-5.99,5.99,0,2.36,1.36,4.4,3.35,5.37,.22,.11,.45,.21,.69,.29,10.82,4.56,19.83,12.3,25.72,21.96,4.76,7.8,7.48,16.85,7.48,26.51Z"/>
</svg>